# xmcd
#
# Track frame offsets:
#	150
#	17854
#	38198
#	51401
#	71148
#	85412
#	104745
#	121842
#	138958
#	151074
#	171270
#	188870
#	209217
#	227928
#	251477
#
# Disc length: 3596 seconds
#
# Revision: 1
# Processed by: cddbd v1.5.1PL0 Copyright (c) Steve Scherf et al.
# Submitted via: audiograbber 1.82.02
#
DISCID=df0e0a0f
DTITLE=Zona B - Zona B
DYEAR=1900
DGENRE=Blues
TTITLE0=Rock Me Baby
TTITLE1=Almost Lost My Mind
TTITLE2=Can't Aford To Do It
TTITLE3=Guess Who
TTITLE4=Dust My Broom
TTITLE5=Drifting
TTITLE6=Watch Me Baby
TTITLE7=Rain
TTITLE8=Watch Out
TTITLE9=A Fool No More
TTITLE10=Muddy Water's Blues
TTITLE11=CrossRoads
TTITLE12=Mother Nature
TTITLE13=Chitlins Con Carne
TTITLE14=Trouble In My Mind
EXTD=
EXTT0=
EXTT1=
EXTT2=
EXTT3=
EXTT4=
EXTT5=
EXTT6=
EXTT7=
EXTT8=
EXTT9=
EXTT10=
EXTT11=
EXTT12=
EXTT13=
EXTT14=
PLAYORDER=
